<?xml version="1.0" encoding="UTF-8" standalone="no"?>
<svg
   xmlns:dc="http://purl.org/dc/elements/1.1/"
   xmlns:cc="http://creativecommons.org/ns#"
   xmlns:rdf="http://www.w3.org/1999/02/22-rdf-syntax-ns#"
   xmlns:svg="http://www.w3.org/2000/svg"
   xmlns="http://www.w3.org/2000/svg"
   xmlns:sodipodi="http://sodipodi.sourceforge.net/DTD/sodipodi-0.dtd"
   xmlns:inkscape="http://www.inkscape.org/namespaces/inkscape"
   inkscape:version="1.0 (4035a4fb49, 2020-05-01)"
   inkscape:export-ydpi="96"
   inkscape:export-xdpi="96"
   inkscape:export-filename="C:\Users\Kai_Xtr\XAMPP\htdocs\literledge\media\images\icons\flags\BIL.png"
   sodipodi:docname="belarus.svg"
   xml:space="preserve"
   style="enable-background:new 0 0 512 512;"
   viewBox="0 0 512 512"
   y="0px"
   x="0px"
   id="Layer_1"
   version="1.1"><metadata
   id="metadata57"><rdf:RDF><cc:Work
       rdf:about=""><dc:format>image/svg+xml</dc:format><dc:type
         rdf:resource="http://purl.org/dc/dcmitype/StillImage" /></cc:Work></rdf:RDF></metadata><defs
   id="defs55" /><sodipodi:namedview
   inkscape:current-layer="Layer_1"
   inkscape:window-maximized="1"
   inkscape:window-y="-8"
   inkscape:window-x="-8"
   inkscape:cy="256"
   inkscape:cx="256"
   inkscape:zoom="1.7382812"
   showgrid="false"
   id="namedview53"
   inkscape:window-height="1057"
   inkscape:window-width="1920"
   inkscape:pageshadow="2"
   inkscape:pageopacity="0"
   guidetolerance="10"
   gridtolerance="10"
   objecttolerance="10"
   borderopacity="1"
   bordercolor="#666666"
   pagecolor="#ffffff" />
<circle
   id="circle2"
   r="256"
   cy="256"
   cx="256"
   style="fill:#FCFCFC;" />
<g
   id="g16">
	<polygon
   id="polygon4"
   points="105.739,237.449 77.913,186.966 105.739,137.275 133.565,186.966  "
   style="fill:#A2001D;" />
	<polygon
   id="polygon6"
   points="50.087,237.449 22.261,186.966 50.087,137.275 77.913,186.966  "
   style="fill:#A2001D;" />
	<polygon
   id="polygon8"
   points="105.739,374.725 77.913,324.242 105.739,274.551 133.565,324.242  "
   style="fill:#A2001D;" />
	<polygon
   id="polygon10"
   points="50.087,374.725 22.261,324.242 50.087,274.551 77.913,324.242  "
   style="fill:#A2001D;" />
	<path
   id="path12"
   d="M133.565,49.692l-7.878-14.068c-14.13,8.372-27.383,18.065-39.594,28.909l19.646,35.641   L133.565,49.692z"
   style="fill:#A2001D;" />
	<path
   id="path14"
   d="M105.739,411.826l-19.854,35.456c12.2,10.858,25.444,20.566,39.568,28.955l8.113-14.719   L105.739,411.826z"
   style="fill:#A2001D;" />
</g>
<path
   id="path18"
   d="M155.826,322.783v168.863C186.595,504.743,220.448,512,256,512  c110.071,0,203.906-69.472,240.077-166.957L155.826,322.783z"
   style="fill:#6DA544;" />
<path
   id="path20"
   d="M496.077,345.043C506.368,317.31,512,287.314,512,256C512,114.616,397.384,0,256,0  c-35.549,0-69.405,7.253-100.174,20.348v324.696H496.077z"
   style="fill:#A2001D;" />
<g
   id="g22">
</g>
<g
   id="g24">
</g>
<g
   id="g26">
</g>
<g
   id="g28">
</g>
<g
   id="g30">
</g>
<g
   id="g32">
</g>
<g
   id="g34">
</g>
<g
   id="g36">
</g>
<g
   id="g38">
</g>
<g
   id="g40">
</g>
<g
   id="g42">
</g>
<g
   id="g44">
</g>
<g
   id="g46">
</g>
<g
   id="g48">
</g>
<g
   id="g50">
</g>
</svg>
